# AST/ASF file generated using VICON BodyLanguage
# -----------------------------------------------
:version 1.10
:name VICON
:units
  mass 1.0
  length 0.45
  angle deg
:documentation
   .ast/.asf automatically generated from VICON data using
   VICON BodyBuilder and BodyLanguage model FoxedUp or BRILLIANT.MOD
:root
   order TX TY TZ RX RY RZ
   axis XYZ
   position 0 0 0  
   orientation 0 0 0 
:bonedata
  begin
     id 1 
     name lhipjoint
     direction 0.602128 -0.715006 0.355257 
     length 2.21237 
     axis 0 0 0  XYZ
  end
  begin
     id 2 
     name lfemur
     direction 0.34202 -0.939693 0  
     length 6.71649  
     axis 0 0 20  XYZ
    dof rx ry rz
    limits (-160.0 20.0)
           (-70.0 70.0)
           (-60.0 70.0)
  end
  begin
     id 3 
     name ltibia
     direction 0.34202 -0.939693 0   
     length 6.97123   
     axis 0 0 20   XYZ
    dof rx
    limits (-10.0 170.0)
  end
  begin
     id 4 
     name lfoot
     direction 0.0655697 -0.180151 0.981451   
     length 1.80924   
     axis -90 7.62852e-016 20   XYZ
    dof rx rz
    limits (-45.0 90.0)
           (-70.0 20.0)
  end
  begin
     id 5 
     name ltoes
     direction 1.53545e-011 -4.21827e-011 1   
     length 0.916331   
     axis -90 7.62852e-016 20   XYZ
    dof rx
    limits (-90.0 20.0)
  end
  begin
     id 6 
     name rhipjoint
     direction -0.625414 -0.698792 0.347201   
     length 2.2637  
     axis 0 0 0  XYZ 
  end
  begin
     id 7 
     name rfemur
     direction -0.34202 -0.939693 0   
     length 7.07595   
     axis 0 0 -20   XYZ
    dof rx ry rz
    limits (-160.0 20.0)
           (-70.0 70.0)
           (-70.0 60.0)
  end
  begin
     id 8 
     name rtibia
     direction -0.34202 -0.939693 0   
     length 7.22924   
     axis 0 0 -20   XYZ
    dof rx
    limits (-10.0 170.0)
 end
 begin
     id 9 
     name rfoot
     direction -0.0766747 -0.210662 0.974547   
     length 1.98482  
     axis -90 -7.62852e-016 -20   XYZ
    dof rx rz
    limits (-45.0 90.0)
           (-20.0 70.0)
  end
  begin
     id 10 
     name rtoes
     direction -1.53532e-011 -4.21867e-011 1   
     length 0.999842   
     axis -90 -7.62852e-016 -20   XYZ
    dof rx
    limits (-90.0 20.0)
  end
  begin
     id 11 
     name lowerback
     direction -0.0224668 0.997354 -0.0691422   
     length 2.09945   
     axis 0 0 0   XYZ
    dof rx ry rz
    limits (-20.0 45.0)
           (-30.0 30.0)
           (-30.0 30.0)
  end
  begin
     id 12 
     name upperback
     direction 0.0134698 0.998451 -0.0539888   
     length 2.09758   
     axis 0 0 0   XYZ
    dof rx ry rz
    limits (-20.0 45.0)
           (-30.0 30.0)
           (-30.0 30.0)
  end
  begin
     id 13 
     name thorax
     direction 0.0241905 0.99948 -0.0213333   
     length 2.10428   
     axis 0 0 0   XYZ
    dof rx ry rz
    limits (-20.0 45.0)
           (-30.0 30.0)
           (-30.0 30.0)
  end
  begin
     id 14 
     name lowerneck
     direction -0.00866847 0.995978 0.0891737   
     length 1.3959   
     axis 0 0 0   XYZ
    dof rx ry rz
    limits (-20.0 45.0)
           (-30.0 30.0)
           (-30.0 30.0)
  end
  begin
     id 15 
     name upperneck
     direction 0.0680679 0.992203 0.104404   
     length 1.39452   
     axis 0 0 0   XYZ
    dof rx ry rz
    limits (-20.0 45.0)
           (-30.0 30.0)
           (-30.0 30.0)
  end
  begin
     id 16
     name head
     direction 0.0242216 0.999358 0.0264054  
     length 1.40433  
     axis 0 0 0   XYZ
    dof rx ry rz
    limits (-20.0 45.0)
           (-30.0 30.0)
           (-30.0 30.0)
  end
  begin
     id 17 
     name lclavicle
     direction 0.929368 0.362991 -0.0671771  
     length 3.04887  
     axis 0 0 0   XYZ
    dof ry rz
    limits (-20.0 10.0)
           (0.0 20.0)
  end
  begin
     id 18 
     name lhumerus
     direction 1 -4.48967e-011 -7.13741e-028   
     length 4.77195   
     axis -180 -30 -90   XYZ
    dof rx ry rz
    limits (-60.0 90.0)
           (-90.0 90.0)
           (-90.0 90.0)
  end
  begin
     id 19
     name lradius
     direction 1 -4.48977e-011 3.60404e-027   
     length 2.98444   
     axis -180 -30 -90   XYZ
    dof rx
    limits (-10.0 170.0)
  end
  begin
     id 20
     name lwrist
     direction 1 -4.48997e-011 7.54877e-027   
     length 1.49222   
     axis -7.18178e-015 90 90   XYZ
    dof ry
    limits (-180.0 0.0)
 end
  begin
     id 21 
     name lhand
     direction 1 -4.489e-011 1.51105e-026   
     length 0.992285   
     axis -9.63605e-015 90 90   XYZ
    dof rx rz
    limits (-90.0 90.0)
           (-45.0 45.0)
  end
  begin
     id 22 
     name lfingers
     direction 1 -4.48998e-011 3.01948e-026   
     length 0.800006   
     axis -1.92718e-014 90 90   XYZ
    dof rx
    limits (0.0 90.0)
  end
  begin
     id 23
     name lthumb
     direction 0.707107 -6.34881e-011 0.707107   
     length 1.14865   
     axis -90 45 -3.53137e-014   XYZ
    dof rx rz
    limits (-45.0 45.0)
           (-45.0 45.0)
  end
  begin
     id 24 
     name rclavicle
     direction -0.945672 0.324529 0.0196374   
     length 3.4236  
     axis 0 0 0   XYZ 
    dof ry rz
    limits (-10.0 20.0)
           (-20.0 0.0)
  end
  begin
     id 25 
     name rhumerus
     direction -1 -4.4896e-011 1.02757e-029  
     length 4.62052   
     axis -180 30 90   XYZ
    dof rx ry rz
    limits (-90.0 60.0)
           (-90.0 90.0)
           (-90.0 90.0)
  end
  begin
     id 26 
     name rradius
     direction -1 -4.48982e-011 3.85962e-027   
     length 2.95332   
     axis -180 30 90   XYZ
    dof rx
    limits (-10.0 170.0)
  end
  begin
     id 27 
     name rwrist
     direction -1 -4.48961e-011 7.55118e-027   
     length 1.47666   
     axis -7.18178e-015 -90 -90   XYZ
    dof ry
    limits (-180.0 0.0)
  end
  begin
     id 28
     name rhand
     direction -1 -4.48984e-011 1.50994e-026   
     length 0.990956   
     axis -9.63605e-015 -90 -90   XYZ
    dof rx rz
    limits (-90.0 90.0)
           (-45.0 45.0)
  end
  begin
     id 29
     name rfingers
     direction -1 -4.4892e-011 3.02158e-026   
     length 0.798934   
     axis -1.92718e-014 -90 -90   XYZ
    dof rx
    limits (0.0 90.0)
  end
  begin
     id 30
     name rthumb
     direction -0.707107 -6.34916e-011 0.707107   
     length 1.14711   
     axis -90 -45 3.53137e-014   XYZ
    dof rx rz
    limits (-45.0 45.0)
           (-45.0 45.0)
  end
:hierarchy
  begin
    root lhipjoint rhipjoint lowerback
    lhipjoint lfemur
    lfemur ltibia
    ltibia lfoot
    lfoot ltoes
    rhipjoint rfemur
    rfemur rtibia
    rtibia rfoot
    rfoot rtoes
    lowerback upperback
    upperback thorax
    thorax lowerneck lclavicle rclavicle
    lowerneck upperneck
    upperneck head
    lclavicle lhumerus
    lhumerus lradius
    lradius lwrist
    lwrist lhand lthumb
    lhand lfingers
    rclavicle rhumerus
    rhumerus rradius
    rradius rwrist
    rwrist rhand rthumb
    rhand rfingers
  end

#!OML:ASF H:\ManfredObstacles\Project 1\Capture day 1\Session 1\Male.ASF
:FULLY-SPECIFIED
:DEGREES
151
root 4.87271 16.2871 21.3865 -172.822 -11.5647 -180.387
lowerback -8.72267 -3.04944 -3.26124
upperback 2.29102 -3.70388 -0.0828502
thorax 7.51851 -1.95953 1.17772
lowerneck 2.12657 -3.48947 -4.5773
upperneck -5.78818 -4.61396 10.4692
head -1.8737 -2.58793 4.39772
rclavicle -4.50247e-014 -6.75868e-015
rhumerus -48.43 -38.1824 -62.4506
rradius 23.2666
rwrist 39.7485
rhand 0.255012 -6.40798
rfingers 7.12502
rthumb 25.8346 -34.6734
lclavicle -4.50247e-014 -6.75868e-015
lhumerus -25.9926 7.59615 84.3564
lradius 19.6463
lwrist -29.2002
lhand -9.3755 6.82629
lfingers 7.12502
lthumb 16.585 36.1376
rfemur -33.9349 -1.8102 12.8058
rtibia 20.0828
rfoot -6.18321 6.69736
rtoes 7.79612
lfemur -7.01097 4.56332 -22.9261
ltibia 14.3784
lfoot 2.11263 -22.8462
ltoes 29.7923
152
root 4.88878 16.2824 21.261 -172.814 -11.8738 -180.398
lowerback -8.87915 -3.11887 -3.21759
upperback 2.22341 -3.79418 -0.111044
thorax 7.53569 -1.99975 1.10335
lowerneck 2.1833 -3.52013 -4.65267
upperneck -5.81132 -4.65611 10.5252
head -1.88565 -2.61053 4.43576
rclavicle 2.48481e-014 -3.97569e-015
rhumerus -49.1834 -38.5187 -61.8198
rradius 23.0648
rwrist 39.9943
rhand 0.267719 -6.65489
rfingers 7.12502
rthumb 25.8468 -34.9186
lclavicle 2.48481e-014 -3.97569e-015
lhumerus -26.3303 8.2475 83.9013
lradius 19.0652
lwrist -30.1061
lhand -9.31864 6.9991
lfingers 7.12502
lthumb 16.6397 36.3058
rfemur -33.5391 -1.57962 12.7437
rtibia 19.2389
rfoot -3.34232 6.39964
rtoes 6.43269
lfemur -6.2991 4.36257 -22.6956
ltibia 13.8771
lfoot 2.29478 -22.9743
ltoes 30.1736
153
root 4.90829 16.2711 21.131 -172.921 -12.3736 -180.535
lowerback -8.94097 -3.32035 -3.40146
upperback 2.24675 -4.0411 -0.0920551
thorax 7.62406 -2.13002 1.1813
lowerneck 2.08246 -3.49166 -4.79644
upperneck -5.82363 -4.61928 10.5538
head -1.87095 -2.58761 4.4709
rclavicle -2.63887e-014 1.35174e-014
rhumerus -49.7144 -38.907 -61.1074
rradius 22.7596
rwrist 40.5304
rhand 0.293803 -6.74837
rfingers 7.12502
rthumb 25.8718 -35.0084
lclavicle -2.63887e-014 1.35174e-014
lhumerus -26.6228 9.3104 83.3846
lradius 18.4449
lwrist -31.2219
lhand -9.40194 6.94163
lfingers 7.12502
lthumb 16.5595 36.2551
rfemur -32.8606 -1.06622 12.3883
rtibia 18.7365
rfoot -0.443596 5.5709
rtoes 9.00757
lfemur -5.54636 4.04522 -22.5633
ltibia 13.6161
lfoot 2.30061 -23.2121
ltoes 30.322
154
root 4.92032 16.2497 21.0126 -172.79 -12.4663 -180.674
lowerback -9.21591 -3.36131 -3.45637
upperback 2.22901 -4.07735 -0.107256
thorax 7.76836 -2.14999 1.17441
lowerneck 2.04059 -3.4909 -4.8978
upperneck -5.96812 -4.61406 10.5677
head -1.90936 -2.58594 4.49905
rclavicle -2.37548e-014 -1.19271e-015
rhumerus -50.0846 -39.3236 -60.4949
rradius 22.4517
rwrist 40.8496
rhand 0.383849 -6.82456
rfingers 7.12502
rthumb 25.958 -35.072
lclavicle -2.37548e-014 -1.19271e-015
lhumerus -26.8453 10.789 82.7369
lradius 17.7884
lwrist -32.7793
lhand -9.44922 6.72325
lfingers 7.12502
lthumb 16.514 36.0405
rfemur -32.5543 -0.839312 12.2596
rtibia 18.5296
rfoot 2.77426 5.39658
rtoes 14.7476
lfemur -5.15078 3.65356 -22.5724
ltibia 13.5216
lfoot 1.64728 -23.1171
ltoes 29.9662
155
root 4.95053 16.2327 20.8711 -172.816 -12.8401 -180.703
lowerback -9.59671 -3.48025 -3.66866
upperback 2.29132 -4.19698 -0.056878
thorax 8.08235 -2.22171 1.29991
lowerneck 2.0578 -3.53269 -4.89098
upperneck -6.1029 -4.66499 10.5178
head -1.95385 -2.61338 4.48496
rclavicle -6.11263e-015 1.98785e-015
rhumerus -50.4211 -39.5881 -60.1005
rradius 22.3429
rwrist 40.8666
rhand 0.669598 -7.06085
rfingers 7.12502
rthumb 26.2316 -35.2679
lclavicle -6.11263e-015 1.98785e-015
lhumerus -27.0249 12.2083 82.0198
lradius 17.0345
lwrist -34.3824
lhand -9.45939 6.61584
lfingers 7.12502
lthumb 16.5042 35.9339
rfemur -31.7976 -0.055866 12.1105
rtibia 18.559
rfoot 1.30069 5.06074
rtoes 17.9078
lfemur -4.56279 3.34647 -22.275
ltibia 13.507
lfoot 1.37225 -23.387
ltoes 30.5949
156
root 4.97019 16.2098 20.7397 -172.706 -13.1419 -180.823
lowerback -9.90066 -3.56273 -3.66485
upperback 2.23597 -4.2904 -0.131933
thorax 8.19705 -2.26448 1.18572
lowerneck 2.04538 -3.5566 -4.8822
upperneck -6.09904 -4.69745 10.5165
head -1.94758 -2.62954 4.48237
rclavicle 4.87022e-014 -7.15625e-015
rhumerus -50.9627 -40.0206 -59.4972
rradius 22.1789
rwrist 41.3047
rhand 0.927249 -7.02097
rfingers 7.12502
rthumb 26.4782 -35.1911
lclavicle 4.87022e-014 -7.15625e-015
lhumerus -27.2702 13.7321 81.108
lradius 16.2117
lwrist -35.9697
lhand -9.45008 6.69195
lfingers 7.12502
lthumb 16.5131 36.0093
rfemur -31.2512 0.362014 11.9603
rtibia 18.7162
rfoot -0.784737 4.92055
rtoes 17.4457
lfemur -4.17312 2.9239 -22.1761
ltibia 13.5093
lfoot 1.22501 -23.4174
ltoes 31.443
157
root 4.99483 16.1892 20.6061 -172.652 -13.4702 -181.004
lowerback -10.1043 -3.66296 -3.81561
upperback 2.17564 -4.39405 -0.18193
thorax 8.26354 -2.32036 1.18761
lowerneck 2.10163 -3.56229 -4.98474
upperneck -6.14688 -4.70545 10.5674
head -1.97018 -2.63461 4.52467
rclavicle 3.83157e-014 4.37326e-015
rhumerus -51.4871 -40.3988 -58.791
rradius 21.8676
rwrist 41.8977
rhand 0.95864 -6.89135
rfingers 7.12502
rthumb 26.5083 -35.0569
lclavicle 3.83157e-014 4.37326e-015
lhumerus -27.6482 15.6897 80.0396
lradius 15.4149
lwrist -37.8674
lhand -9.63619 6.60237
lfingers 7.12502
lthumb 16.334 35.9345
rfemur -30.7746 0.449017 11.8966
rtibia 19.0302
rfoot -2.43422 4.77531
rtoes 15.4826
lfemur -3.57074 2.52887 -22.1154
ltibia 13.2288
lfoot 1.0316 -23.4885
ltoes 31.5239
158
root 5.01875 16.1745 20.4731 -172.559 -13.7551 -181.103
lowerback -10.3662 -3.75523 -3.96054
upperback 2.11317 -4.48983 -0.143264
thorax 8.36815 -2.37412 1.27716
lowerneck 2.21193 -3.56588 -5.12444
upperneck -6.29606 -4.70735 10.5555
head -2.03761 -2.63588 4.55697
rclavicle -9.88954e-014 -6.75868e-015
rhumerus -51.6738 -40.3229 -58.5135
rradius 21.7269
rwrist 42.0614
rhand 1.0008 -7.02645
rfingers 7.12502
rthumb 26.5486 -35.1859
lclavicle -9.88954e-014 -6.75868e-015
lhumerus -28.0936 18.0815 78.8396
lradius 14.637
lwrist -40.1594
lhand -9.87921 6.32543
lfingers 7.12502
lthumb 16.1 35.6766
rfemur -30.5549 -0.191206 12.2432
rtibia 19.4057
rfoot -3.33915 5.40868
rtoes 15.2414
lfemur -2.90992 1.75838 -22.0106
ltibia 12.7727
lfoot 0.402433 -23.1779
ltoes 30.7403
159
root 5.03994 16.1722 20.3418 -172.37 -13.9946 -181.083
lowerback -10.7134 -3.80176 -3.88939
upperback 2.00602 -4.54863 -0.117777
thorax 8.45205 -2.39797 1.23566
lowerneck 2.31543 -3.58961 -5.10967
upperneck -6.45218 -4.73402 10.4414
head -2.10899 -2.65004 4.522
rclavicle -1.55549e-014 -2.5842e-015
rhumerus -51.8133 -40.2661 -58.3187
rradius 21.6481
rwrist 42.2518
rhand 1.04241 -7.18621
rfingers 7.12502
rthumb 26.5884 -35.3397
lclavicle -1.55549e-014 -2.5842e-015
lhumerus -28.6889 21.6121 77.0327
lradius 13.7855
lwrist -43.7489
lhand -9.92158 6.25629
lfingers 7.12502
lthumb 16.0592 35.6108
rfemur -30.5927 -0.993019 12.7941
rtibia 19.8731
rfoot -4.21651 6.19738
rtoes 14.2494
lfemur -2.27972 0.77936 -21.8298
ltibia 12.152
lfoot -0.270349 -22.4978
ltoes 29.9777
